<svg xmlns="http://www.w3.org/2000/svg" viewBox="0 0 32 32" width="24" height="24">
  <path fill="#ffffff" d="M16.04 4C9.4 4 4 9.36 4 15.96c0 2.34.68 4.52 1.86 6.38L4.4 28l5.84-1.54a12.1 12.1 0 0 0 5.8 1.48h.01c6.64 0 12.04-5.36 12.04-11.96C28.09 9.38 22.69 4 16.04 4Zm0 21.86h-.01a9.9 9.9 0 0 1-5.04-1.38l-.36-.21-3.99 1.05 1.07-3.87-.23-.4a9.83 9.83 0 0 1-1.5-5.09c0-5.43 4.43-9.85 9.87-9.85 2.64 0 5.12 1.03 6.98 2.89a9.8 9.8 0 0 1 2.89 6.96c0 5.43-4.43 9.9-9.68 9.9Zm5.41-7.39c-.3-.15-1.75-.86-2.02-.96-.27-.1-.47-.15-.66.15-.2.3-.76.96-.93 1.16-.17.2-.34.22-.64.07-.3-.15-1.26-.46-2.4-1.48-.89-.79-1.49-1.77-1.66-2.07-.17-.3-.02-.46.13-.61.15-.15.34-.4.5-.6.17-.2.22-.35.34-.59.11-.24.06-.45-.04-.6-.1-.15-.6-1.45-.82-1.99-.22-.53-.45-.46-.62-.47-.16-.01-.35-.01-.54-.01-.19 0-.5.07-.76.35-.27.27-1.02.99-1.02 2.42 0 1.43 1.04 2.81 1.19 3.01.15.2 2.02 3.08 4.97 4.2 2.94 1.12 2.94.75 3.47.7.53-.05 1.72-.7 1.96-1.38.24-.68.24-1.26.17-1.38-.07-.12-.27-.2-.57-.35Z"/>
</svg>
